<svg width="14" height="14" viewBox="0 0 14 14" fill="none" xmlns="http://www.w3.org/2000/svg">
<path d="M7.00002 12.4542L6.15419 11.6842C3.15002 8.96 1.16669 7.16333 1.16669 4.95833C1.16669 3.16167 2.57835 1.75 4.37502 1.75C5.39002 1.75 6.36419 2.2225 7.00002 2.96917C7.63585 2.2225 8.61002 1.75 9.62502 1.75C11.4217 1.75 12.8334 3.16167 12.8334 4.95833C12.8334 7.16333 10.85 8.96 7.84585 11.69L7.00002 12.4542Z" fill="white"/>
<path d="M9.62502 1.75C8.61002 1.75 7.63585 2.2225 7.00002 2.96917C6.36419 2.2225 5.39002 1.75 4.37502 1.75C2.57835 1.75 1.16669 3.16167 1.16669 4.95833C1.16669 7.16333 3.15002 8.96 6.15419 11.69L7.00002 12.4542L7.84585 11.6842C10.85 8.96 12.8334 7.16333 12.8334 4.95833C12.8334 3.16167 11.4217 1.75 9.62502 1.75ZM7.05835 10.8208L7.00002 10.8792L6.94169 10.8208C4.16502 8.30667 2.33335 6.64417 2.33335 4.95833C2.33335 3.79167 3.20835 2.91667 4.37502 2.91667C5.27335 2.91667 6.14835 3.49417 6.45752 4.29333H7.54835C7.85169 3.49417 8.72669 2.91667 9.62502 2.91667C10.7917 2.91667 11.6667 3.79167 11.6667 4.95833C11.6667 6.64417 9.83502 8.30667 7.05835 10.8208Z" fill="white"/>
</svg>
